<?xml version="1.0" encoding="UTF-8" standalone="no"?>
<!-- Created with Inkscape (http://www.inkscape.org/) -->

<svg
   xmlns:dc="http://purl.org/dc/elements/1.1/"
   xmlns:cc="http://creativecommons.org/ns#"
   xmlns:rdf="http://www.w3.org/1999/02/22-rdf-syntax-ns#"
   xmlns:svg="http://www.w3.org/2000/svg"
   xmlns="http://www.w3.org/2000/svg"
   xmlns:sodipodi="http://sodipodi.sourceforge.net/DTD/sodipodi-0.dtd"
   xmlns:inkscape="http://www.inkscape.org/namespaces/inkscape"
   version="1.1"
   width="1000"
   height="160"
   id="svg2"
   xml:space="preserve"
   inkscape:version="0.48.5 r10040"
   sodipodi:docname="logo.svg"><sodipodi:namedview
     pagecolor="#ffffff"
     bordercolor="#666666"
     borderopacity="1"
     objecttolerance="10"
     gridtolerance="10"
     guidetolerance="10"
     inkscape:pageopacity="0"
     inkscape:pageshadow="2"
     inkscape:window-width="1323"
     inkscape:window-height="727"
     id="namedview34"
     showgrid="false"
     showguides="true"
     inkscape:guide-bbox="true"
     fit-margin-top="0"
     fit-margin-left="0"
     fit-margin-right="0"
     fit-margin-bottom="0"
     inkscape:zoom="0.67308378"
     inkscape:cx="868.72839"
     inkscape:cy="145.36892"
     inkscape:window-x="0"
     inkscape:window-y="0"
     inkscape:window-maximized="0"
     inkscape:current-layer="svg2"><sodipodi:guide
       orientation="0,1"
       position="643.04769,188.35703"
       id="guide3890" /><sodipodi:guide
       orientation="0,1"
       position="344.42216,38.301411"
       id="guide3892" /></sodipodi:namedview><metadata
     id="metadata8"><rdf:RDF><cc:Work
         rdf:about=""><dc:format>image/svg+xml</dc:format><dc:type
           rdf:resource="http://purl.org/dc/dcmitype/StillImage" /><dc:title></dc:title></cc:Work></rdf:RDF></metadata><defs
     id="defs6"><clipPath
       id="clipPath60"><path
         d="m 2394.73,378.102 -0.01,0 0,37.097 c 0,9.199 2.64,17.703 7.21,25 -4.53,-20 -7.01,-40.801 -7.2,-62.097"
         id="path62"
         inkscape:connector-curvature="0" /></clipPath></defs><path
     inkscape:connector-curvature="0"
     style="opacity:0.7;fill:#ffffff;fill-opacity:1;fill-rule:nonzero;stroke:none"
     id="path16-4"
     d="M 583.64989,244.95087 C 819.11627,244.95087 1010,213.50448 1010,174.71262 1010,135.92093 819.11627,104.4735 583.64989,104.4735 c -235.46719,0 -426.35462,31.44743 -426.35462,70.23912 0,38.79186 190.88743,70.23825 426.35462,70.23825" /><path
     inkscape:connector-curvature="0"
     style="opacity:0.7;fill:#ffffff;fill-opacity:1;fill-rule:nonzero;stroke:none"
     id="path16"
     d="m 84.97099,143.54926 c 38.79171,0 70.23868,-31.44638 70.23868,-70.238249 0,-38.791691 -31.44697,-70.2391211 -70.23868,-70.2391211 -38.791843,0 -70.239428,31.4474301 -70.239428,70.2391211 0,38.791869 31.447585,70.238249 70.239428,70.238249" /><path
     inkscape:connector-curvature="0"
     style="fill:#e8b99e;fill-opacity:1;fill-rule:nonzero;stroke:none"
     id="path18"
     d="m 78.879455,79.936271 -9.994845,3.10632 5.668139,10.33745 9.232881,-4.48128 -4.828913,-8.96249 -0.07727,0" /><path
     inkscape:connector-curvature="0"
     style="fill:#a15148;fill-opacity:1;fill-rule:nonzero;stroke:none"
     id="path20"
     d="M 42.811721,45.889141 75.864823,32.417468 66.794039,10.161894 33.740943,23.633481 l 9.070778,22.25566" /><path
     inkscape:connector-curvature="0"
     style="fill:#b55646;fill-opacity:1;fill-rule:nonzero;stroke:none"
     id="path22"
     d="m 79.431264,36.28326 1.782294,-0.729832 c 2.66865,-1.092797 3.513594,-5.198543 1.887217,-9.170443 L 76.151931,9.4117769 c -1.626533,-3.972507 -5.108295,-6.305818 -7.776945,-5.213368 l -1.782448,0.729398 c -0.968872,0.397121 -1.27576,1.887992 -0.685165,3.330318 L 76.607317,34.390153 c 0.590594,1.44224 1.85492,2.289794 2.823947,1.893107" /><path
     inkscape:connector-curvature="0"
     style="fill:#a15148;fill-opacity:1;fill-rule:nonzero;stroke:none"
     id="path24"
     d="m 82.864814,34.222498 c 1.287196,-1.80191 1.457637,-4.856124 0.237815,-7.835179 L 76.153631,9.4162849 C 74.933808,6.4373169 72.670323,4.3792419 70.489046,3.9975509 L 82.864814,34.222498" /><path
     inkscape:connector-curvature="0"
     style="fill:#b55646;fill-opacity:1;fill-rule:nonzero;stroke:none"
     id="path26"
     d="M 43.898343,50.907807 42.09983,51.637378 C 39.407074,52.730001 35.905681,50.36635 34.279618,46.357953 L 27.331855,29.23244 c -1.626074,-4.008049 -0.761189,-8.14301 1.931715,-9.235547 l 1.798525,-0.729658 c 0.977984,-0.396774 2.249268,0.461443 2.839864,1.916945 l 10.697928,26.369817 c 0.590447,1.455501 0.276304,2.957035 -0.701544,3.35381" /><path
     inkscape:connector-curvature="0"
     style="fill:#a15148;fill-opacity:1;fill-rule:nonzero;stroke:none"
     id="path28"
     d="m 39.972475,51.841617 c -2.197188,-0.391834 -4.47149,-2.472881 -5.691002,-5.478982 L 27.333711,29.236948 C 26.114036,26.230759 26.295759,23.1534 27.598876,21.341781 l 12.373599,30.499836" /><path
     inkscape:connector-curvature="0"
     style="fill:#eeb329;fill-opacity:1;fill-rule:nonzero;stroke:none"
     id="path30"
     d="m 47.709094,47.029703 2.784854,-1.629313 c 6.171273,-3.610754 12.830073,-6.314833 19.771808,-8.028928 L 73.160014,36.656628 61.896672,9.0213309 58.203674,11.510682 c -5.173813,3.487831 -11.007751,5.877837 -17.141635,7.0223 l -4.616286,0.861424 11.263341,27.635297" /><path
     inkscape:connector-curvature="0"
     style="fill:#b55646;fill-opacity:1;fill-rule:nonzero;stroke:none"
     id="path32"
     d="m 48.726643,47.230908 0.02071,-0.0087 c 0.564635,-0.230244 0.835827,-0.874601 0.605739,-1.439465 L 38.492745,19.136335 c -0.230242,-0.564603 -0.874612,-0.836025 -1.439396,-0.60578 l -0.02056,0.0087 c -0.564944,0.230245 -0.83613,0.874601 -0.605887,1.439378 l 10.860347,26.646408 c 0.230242,0.56469 0.874612,0.836025 1.439402,0.60578" /><path
     inkscape:connector-curvature="0"
     style="fill:#b55646;fill-opacity:1;fill-rule:nonzero;stroke:none"
     id="path34"
     d="m 73.943456,36.953104 0.02071,-0.0087 c 0.564789,-0.230245 0.835981,-0.874602 0.605738,-1.439379 L 63.70941,8.8585299 c -0.230088,-0.564603 -0.874459,-0.835938 -1.439248,-0.605694 l -0.02071,0.0087 c -0.564634,0.230245 -0.83598,0.874602 -0.605737,1.439551 L 72.504051,36.34743 c 0.230242,0.564603 0.874613,0.835938 1.439402,0.605694" /><path
     inkscape:connector-curvature="0"
     style="fill:#a15148;fill-opacity:1;fill-rule:nonzero;stroke:none"
     id="path36"
     d="m 88.492009,125.69652 -26.726993,-72.817067 4.85611,-1.205319 30.740933,70.486536 c 1.935431,4.52896 0.729521,6.27157 -1.748602,7.2769 -2.48941,1.00993 -5.363263,0.8831 -7.121448,-3.74105" /><path
     inkscape:connector-curvature="0"
     style="fill:#a15148;fill-opacity:1;fill-rule:nonzero;stroke:none"
     id="path38"
     d="M 58.74513,54.231709 C 58.505925,53.642313 59.206543,52.784702 60.361,52.168 57.409878,49.808247 54.942419,46.401558 55.577209,42.685042 l 1.102228,-0.523772 5.792996,-2.406476 1.139623,-0.407437 c 3.055427,2.248356 3.64834,6.450761 3.141806,10.218856 1.284414,-0.384898 2.416929,-0.26206 2.660152,0.337393 l 0.01019,0.02514 c 0.278146,0.685967 -0.714523,1.736546 -2.217746,2.346314 l -5.225578,2.120144 c -1.503067,0.609768 -2.947258,0.547959 -3.225558,-0.138355 l -0.01019,-0.02514" /><path
     inkscape:connector-curvature="0"
     style="fill:#f7cca9;fill-opacity:1;fill-rule:nonzero;stroke:none"
     id="path40"
     d="m 64.720156,88.330161 4.21452,-5.27275 c 0.04852,-0.0607 0.129802,-0.0841 0.203355,-0.0589 l 12.950758,4.46437 c 0.103377,0.0355 0.15298,0.15301 0.106313,0.2521 l -1.928474,4.09778 c -0.02875,0.0615 -0.08854,0.10142 -0.155762,0.10524 l -4.365337,0.25218 c -0.217571,0.0121 -0.236115,0.32638 -0.02148,0.36443 l 0.01669,0 c 0.06335,0.0112 0.508079,-0.12526 0.531103,-0.065 l 7.669395,21.079289 c 0.02581,0.0668 0.01036,0.14261 -0.03955,0.1941 l -2.467768,2.547 -0.02518,0.0217 -5.101341,3.64336 c -0.02117,0.0156 -0.03894,0.0347 -0.05208,0.0572 l -4.511209,7.74944 c -0.04961,0.0849 -0.157305,0.11598 -0.244613,0.0702 l -16.62058,-8.76365 c -0.109713,-0.0581 -0.13181,-0.20546 -0.04389,-0.29293 l 8.851204,-8.79759 c 0.04188,-0.0416 0.06119,-0.10108 0.05192,-0.15951 l -2.6994,-16.787799 c -0.0083,-0.0511 0.0054,-0.10333 0.03785,-0.14398 l 3.64355,-4.55863" /><path
     inkscape:connector-curvature="0"
     style="fill:#f7cca9;fill-opacity:1;fill-rule:nonzero;stroke:none"
     id="path42"
     d="m 78.840823,79.859031 6.467031,-0.0659 10.002271,17.70364 -5.839044,8.955719 -5.801036,-2.16418 -1.603971,-5.871589 0.590904,-10.59752 -3.816155,-7.95993" /><path
     inkscape:connector-curvature="0"
     style="fill:#26394b;fill-opacity:1;fill-rule:nonzero;stroke:none"
     id="path44"
     d="M 54.515466,115.46163 80.429343,130.41681 66.618498,160 10,159.91505 54.515466,115.46163" /><path
     inkscape:connector-curvature="0"
     style="fill:#eeb329;fill-opacity:1;fill-rule:nonzero;stroke:none"
     id="path46"
     d="m 90.703417,17.385917 6.939107,5.057763 c 0.717936,0.523252 1.731456,0.308091 2.174946,-0.461877 l 0.0174,-0.03034 c 0.46048,-0.799356 0.0938,-1.820895 -0.77015,-2.144937 l -8.040571,-3.015898 c -0.371626,-0.139395 -0.641428,0.361145 -0.320638,0.594944" /><path
     inkscape:connector-curvature="0"
     style="fill:#eeb329;fill-opacity:1;fill-rule:nonzero;stroke:none"
     id="path48"
     d="m 89.651881,10.768194 3.495193,-6.7953491 c 0.361601,-0.703131 0.03339,-1.565337 -0.704469,-1.849675 l -0.02878,-0.01127 c -0.766138,-0.295175 -1.614166,0.166875 -1.780592,0.970392 l -1.548494,7.4852171 c -0.07174,0.345801 0.405468,0.51441 0.567111,0.200251" /><path
     inkscape:connector-curvature="0"
     style="fill:#eeb329;fill-opacity:1;fill-rule:nonzero;stroke:none"
     id="path50"
     d="m 92.119327,13.34276 8.005033,-2.369461 c 0.8284,-0.245241 1.26108,-1.1549521 0.92854,-1.9523141 l -0.0129,-0.03121 c -0.3452,-0.82779 -1.35069,-1.148451 -2.11128,-0.67279 L 91.849307,12.74348 c -0.32713,0.204411 -0.100284,0.708679 0.269952,0.599105" /><path
     inkscape:connector-curvature="0"
     style="fill:#a15148;fill-opacity:1;fill-rule:nonzero;stroke:none"
     id="path52"
     d="m 89.959846,157.52452 44.695324,0 0,-3.32538 c 0,-2.48943 -2.01747,-4.50755 -4.50657,-4.50755 l -35.682181,0 c -2.48879,0 -4.506573,2.01812 -4.506573,4.50755 l 0,3.32538" /><path
     inkscape:connector-curvature="0"
     style="fill:#b55646;fill-opacity:1;fill-rule:nonzero;stroke:none"
     id="path54"
     d="m 85.321299,159.91505 53.188821,0 c 0.57546,0 1.04196,-0.46665 1.04196,-1.04305 l 0,-3.67308 c 0,-0.57483 -0.4665,-1.04156 -1.04196,-1.04156 l -53.188821,0 c -0.57545,0 -1.041807,0.46673 -1.041807,1.04156 l 0,3.67308 c 0,0.5764 0.466357,1.04305 1.041807,1.04305" /><g
     id="g56"
     transform="matrix(-0.01545252,0,0,-0.01545252,171.65964,160)"><g
       id="g58"
       clip-path="url(#clipPath60)"><path
         inkscape:connector-curvature="0"
         style="fill:#cfe6e5;fill-opacity:1;fill-rule:nonzero;stroke:none"
         id="path64"
         d="m 2394.72,378.102 7.2109,0 0,62.0977 -7.2109,0 0,-62.0977 z" /></g></g><path
     inkscape:connector-curvature="0"
     style="fill:#914a41;fill-opacity:1;fill-rule:nonzero;stroke:none"
     id="path66"
     d="m 89.97298,154.15736 44.68205,0 c -0.003,-0.32907 -0.0413,-0.65052 -0.11126,-0.95956 -0.12825,-0.20242 -0.35465,-0.33687 -0.61254,-0.33687 l -43.87126,1.01833 -0.08697,0.2781" /><path
     inkscape:connector-curvature="0"
     style="fill:#a44e40;fill-opacity:1;fill-rule:nonzero;stroke:none"
     id="path68"
     d="m 89.959846,154.19914 44.695324,0 0,-0.0416 -44.68219,0 -0.0132,0.0416" /><g
     style="font-size:169.64299011px;font-style:italic;font-variant:normal;font-weight:normal;font-stretch:normal;text-indent:0;text-align:start;text-decoration:none;line-height:100%;letter-spacing:normal;word-spacing:normal;text-transform:none;direction:ltr;block-progression:tb;writing-mode:lr-tb;text-anchor:start;baseline-shift:baseline;opacity:0.98000004;color:#000000;fill:#26394b;fill-opacity:1;fill-rule:nonzero;stroke:none;stroke-width:9;marker:none;visibility:visible;display:inline;overflow:visible;enable-background:accumulate;font-family:Linux Biolinum;-inkscape-font-specification:Linux Biolinum Italic"
     id="text3886"
     transform="matrix(0.86688636,0,0,0.86688636,-14.272818,-11.847934)"><path
       d="m 209.91605,29.911023 -25.10716,0 c -6.95536,0 -12.55358,5.598225 -12.55358,12.553581 l 0,96.017936 c 0,6.95535 5.59822,12.55358 12.55358,12.55358 l 25.10716,0 0,-12.55358 -25.10716,0 0,-41.732179 18.83037,0 0,-12.553582 -18.83037,0 0,-41.732175 25.10716,0 0,-12.553581"
       style="font-style:normal;font-weight:500;fill:#26394b;marker:none;font-family:Industria Solid;-inkscape-font-specification:Industria Solid Medium"
       id="path3934"
       inkscape:connector-curvature="0" /><path
       d="m 219.30473,151.03612 12.55358,0 0,-84.482212 12.55358,0 0,84.482212 12.55358,0 0,-84.482212 c 0,-6.955355 -5.59822,-12.553581 -12.55358,-12.553581 l -25.10716,0 0,97.035793"
       style="font-style:normal;font-weight:500;fill:#26394b;marker:none;font-family:Industria Solid;-inkscape-font-specification:Industria Solid Medium"
       id="path3936"
       inkscape:connector-curvature="0" /><path
       d="m 307.32824,125.92896 -12.55359,0 0,12.55358 -12.55358,0 0,-71.928632 12.55358,0 0,12.553582 12.55359,0 0,-7.294649 c 0,-10.348212 -8.48216,-18.830372 -18.83038,-18.830372 -10.34821,0 -18.83037,8.48216 -18.83037,18.830372 l 0,61.410759 c 0,10.34822 8.48216,18.83038 18.83037,18.83038 10.34822,0 18.83038,-8.48216 18.83038,-18.83038 l 0,-7.29464"
       style="font-style:normal;font-weight:500;fill:#26394b;marker:none;font-family:Industria Solid;-inkscape-font-specification:Industria Solid Medium"
       id="path3938"
       inkscape:connector-curvature="0" /><path
       d="m 320.03025,151.03612 12.55359,0 0,-84.482212 12.55358,0 0,84.482212 12.55358,0 0,-84.482212 c 0,-6.955355 -5.59823,-12.553581 -12.55358,-12.553581 l -12.55358,0 0,-24.089304 -12.55359,0 0,121.125097"
       style="font-style:normal;font-weight:500;fill:#26394b;marker:none;font-family:Industria Solid;-inkscape-font-specification:Industria Solid Medium"
       id="path3940"
       inkscape:connector-curvature="0" /><path
       d="m 382.9466,66.553908 12.55358,0 0,29.687524 -12.55358,0 0,-29.687524 M 370.39302,133.2236 c 0,10.34822 8.48216,18.83038 18.83037,18.83038 10.34821,0 18.83037,-8.48216 18.83037,-18.83038 l 0,-7.29464 -12.55358,0 0,12.55358 -12.55358,0 0,-29.68753 25.10716,0 0,-36.982169 c 0,-10.348212 -8.48216,-18.830372 -18.83037,-18.830372 -10.34821,0 -18.83037,8.48216 -18.83037,18.830372 l 0,61.410759 m 1.52678,-98.90186 34.60717,13.232154 0,-11.705367 -34.60717,-13.232153 0,11.705366"
       style="font-style:normal;font-weight:500;fill:#26394b;marker:none;font-family:Industria Solid;-inkscape-font-specification:Industria Solid Medium"
       id="path3942"
       inkscape:connector-curvature="0" /><path
       d="m 420.75578,151.03612 12.55358,0 0,-84.482212 12.55358,0 0,-12.553581 -12.55358,0 c -6.95536,0 -12.55358,5.598226 -12.55358,12.553581 l 0,84.482212"
       style="font-style:normal;font-weight:500;fill:#26394b;marker:none;font-family:Industria Solid;-inkscape-font-specification:Industria Solid Medium"
       id="path3944"
       inkscape:connector-curvature="0" /><path
       d="m 467.76809,66.553908 12.55358,0 0,29.687524 -12.55358,0 0,-29.687524 M 455.2145,133.2236 c 0,10.34822 8.48216,18.83038 18.83038,18.83038 10.34821,0 18.83037,-8.48216 18.83037,-18.83038 l 0,-7.29464 -12.55358,0 0,12.55358 -12.55358,0 0,-29.68753 25.10716,0 0,-36.982169 c 0,-10.348212 -8.48216,-18.830372 -18.83037,-18.830372 -10.34822,0 -18.83038,8.48216 -18.83038,18.830372 l 0,61.410759"
       style="font-style:normal;font-weight:500;fill:#26394b;marker:none;font-family:Industria Solid;-inkscape-font-specification:Industria Solid Medium"
       id="path3946"
       inkscape:connector-curvature="0" /><path
       d="m 529.15764,79.10749 12.55358,0 0,-7.294649 c 0,-10.348212 -8.48216,-18.830372 -18.83037,-18.830372 -10.34821,0 -18.83037,8.48216 -18.83037,18.830372 l 0,24.428591 c 0,6.955358 5.59823,12.553578 12.55358,12.553578 l 12.55358,0 0,29.68753 -12.55358,0 0,-12.55358 -12.55358,0 0,7.29464 c 0,10.34822 8.48216,18.83038 18.83037,18.83038 10.34821,0 18.83037,-8.48216 18.83037,-18.83038 l 0,-24.42859 c 0,-6.95535 -5.59822,-12.553578 -12.55358,-12.553578 l -12.55358,0 0,-29.687524 12.55358,0 0,12.553582"
       style="font-style:normal;font-weight:500;fill:#26394b;marker:none;font-family:Industria Solid;-inkscape-font-specification:Industria Solid Medium"
       id="path3948"
       inkscape:connector-curvature="0" /><path
       d="m 590.36165,54.000327 -12.55358,0 0,85.500063 c 0,3.39286 1.35715,6.61608 3.73215,8.82144 2.375,2.20536 5.42858,3.5625 8.82143,3.73215 l 0,-98.053653 m 0,-24.089304 -12.55358,0 0,12.553581 12.55358,0 0,-12.553581"
       style="font-style:normal;font-weight:500;fill:#26394b;marker:none;font-family:Industria Solid;-inkscape-font-specification:Industria Solid Medium"
       id="path3950"
       inkscape:connector-curvature="0" /><path
       d="m 602.98947,151.03612 12.55358,0 0,-84.482212 12.55358,0 0,84.482212 12.55358,0 0,-84.482212 c 0,-6.955355 -5.59822,-12.553581 -12.55358,-12.553581 l -25.10716,0 0,97.035793"
       style="font-style:normal;font-weight:500;fill:#26394b;marker:none;font-family:Industria Solid;-inkscape-font-specification:Industria Solid Medium"
       id="path3952"
       inkscape:connector-curvature="0" /><path
       d="m 664.88795,151.03612 11.53573,0 14.75894,-97.035793 -12.55358,0 L 674.04867,92.17 c -1.18749,10.34821 -2.71428,20.52681 -3.22321,31.04467 l -0.33929,0 C 669.97724,112.69681 668.45046,102.51821 667.26296,92.17 l -4.58037,-38.169673 -12.55358,0 14.75894,97.035793"
       style="font-style:normal;font-weight:500;fill:#26394b;marker:none;font-family:Industria Solid;-inkscape-font-specification:Industria Solid Medium"
       id="path3954"
       inkscape:connector-curvature="0" /><path
       d="m 712.95525,66.553908 12.55358,0 0,29.687524 -12.55358,0 0,-29.687524 M 700.40167,133.2236 c 0,10.34822 8.48216,18.83038 18.83037,18.83038 10.34821,0 18.83037,-8.48216 18.83037,-18.83038 l 0,-7.29464 -12.55358,0 0,12.55358 -12.55358,0 0,-29.68753 25.10716,0 0,-36.982169 c 0,-10.348212 -8.48216,-18.830372 -18.83037,-18.830372 -10.34821,0 -18.83037,8.48216 -18.83037,18.830372 l 0,61.410759"
       style="font-style:normal;font-weight:500;fill:#26394b;marker:none;font-family:Industria Solid;-inkscape-font-specification:Industria Solid Medium"
       id="path3956"
       inkscape:connector-curvature="0" /><path
       d="m 750.7644,151.03612 12.55358,0 0,-84.482212 12.55358,0 0,-12.553581 -12.55358,0 c -6.95535,0 -12.55358,5.598226 -12.55358,12.553581 l 0,84.482212"
       style="font-style:normal;font-weight:500;fill:#26394b;marker:none;font-family:Industria Solid;-inkscape-font-specification:Industria Solid Medium"
       id="path3958"
       inkscape:connector-curvature="0" /><path
       d="m 808.80352,79.10749 12.55358,0 0,-7.294649 c 0,-10.348212 -8.48216,-18.830372 -18.83037,-18.830372 -10.34822,0 -18.83038,8.48216 -18.83038,18.830372 l 0,24.428591 c 0,6.955358 5.59823,12.553578 12.55359,12.553578 l 12.55358,0 0,29.68753 -12.55358,0 0,-12.55358 -12.55359,0 0,7.29464 c 0,10.34822 8.48216,18.83038 18.83038,18.83038 10.34821,0 18.83037,-8.48216 18.83037,-18.83038 l 0,-24.42859 c 0,-6.95535 -5.59823,-12.553578 -12.55358,-12.553578 l -12.55358,0 0,-29.687524 12.55358,0 0,12.553582"
       style="font-style:normal;font-weight:500;fill:#26394b;marker:none;font-family:Industria Solid;-inkscape-font-specification:Industria Solid Medium"
       id="path3960"
       inkscape:connector-curvature="0" /><path
       d="m 844.82616,66.553908 12.55358,0 0,29.687524 -12.55358,0 0,-29.687524 M 832.27258,133.2236 c 0,10.34822 8.48216,18.83038 18.83037,18.83038 10.34821,0 18.83037,-8.48216 18.83037,-18.83038 l 0,-7.29464 -12.55358,0 0,12.55358 -12.55358,0 0,-29.68753 25.10716,0 0,-36.982169 c 0,-10.348212 -8.48216,-18.830372 -18.83037,-18.830372 -10.34821,0 -18.83037,8.48216 -18.83037,18.830372 l 0,61.410759 m 36.13396,-110.607226 -34.60717,13.232153 0,11.705367 34.60717,-13.232154 0,-11.705366"
       style="font-style:normal;font-weight:500;fill:#26394b;marker:none;font-family:Industria Solid;-inkscape-font-specification:Industria Solid Medium"
       id="path3962"
       inkscape:connector-curvature="0" /><path
       d="m 895.18889,66.553908 12.55358,0 0,29.687524 -12.55358,0 0,-29.687524 M 882.63531,133.2236 c 0,10.34822 8.48216,18.83038 18.83037,18.83038 10.34822,0 18.83037,-8.48216 18.83037,-18.83038 l 0,-7.29464 -12.55358,0 0,12.55358 -12.55358,0 0,-29.68753 25.10716,0 0,-36.982169 c 0,-10.348212 -8.48215,-18.830372 -18.83037,-18.830372 -10.34821,0 -18.83037,8.48216 -18.83037,18.830372 l 0,61.410759"
       style="font-style:normal;font-weight:500;fill:#26394b;marker:none;font-family:Industria Solid;-inkscape-font-specification:Industria Solid Medium"
       id="path3964"
       inkscape:connector-curvature="0" /><path
       d="m 956.57848,79.10749 12.55358,0 0,-7.294649 c 0,-10.348212 -8.48216,-18.830372 -18.83037,-18.830372 -10.34821,0 -18.83037,8.48216 -18.83037,18.830372 l 0,24.428591 c 0,6.955358 5.59822,12.553578 12.55358,12.553578 l 12.55358,0 0,29.68753 -12.55358,0 0,-12.55358 -12.55358,0 0,7.29464 c 0,10.34822 8.48216,18.83038 18.83037,18.83038 10.34821,0 18.83037,-8.48216 18.83037,-18.83038 l 0,-24.42859 c 0,-6.95535 -5.59822,-12.553578 -12.55358,-12.553578 l -12.55358,0 0,-29.687524 12.55358,0 0,12.553582"
       style="font-style:normal;font-weight:500;fill:#26394b;marker:none;font-family:Industria Solid;-inkscape-font-specification:Industria Solid Medium"
       id="path3966"
       inkscape:connector-curvature="0" /><path
       d="m 980.04754,151.03612 12.55358,0 0,-12.55358 -12.55358,0 0,12.55358"
       style="font-style:normal;font-weight:500;fill:#26394b;marker:none;font-family:Industria Solid;-inkscape-font-specification:Industria Solid Medium"
       id="path3968"
       inkscape:connector-curvature="0" /><path
       d="m 1042.8896,125.92896 -12.5536,0 0,12.55358 -12.5535,0 0,-71.928632 12.5535,0 0,12.553582 12.5536,0 0,-7.294649 c 0,-10.348212 -8.4821,-18.830372 -18.8304,-18.830372 -10.3482,0 -18.8303,8.48216 -18.8303,18.830372 l 0,61.410759 c 0,10.34822 8.4821,18.83038 18.8303,18.83038 10.3483,0 18.8304,-8.48216 18.8304,-18.83038 l 0,-7.29464"
       style="font-style:normal;font-weight:500;fill:#26394b;marker:none;font-family:Industria Solid;-inkscape-font-specification:Industria Solid Medium"
       id="path3970"
       inkscape:connector-curvature="0" /><path
       d="m 1055.5917,133.2236 c 0,10.34822 8.4821,18.83038 18.8303,18.83038 10.3483,0 18.8304,-8.48216 18.8304,-18.83038 l 0,-61.410759 c 0,-10.348212 -8.4821,-18.830372 -18.8304,-18.830372 -10.3482,0 -18.8303,8.48216 -18.8303,18.830372 l 0,61.410759 m 12.5536,-66.669692 12.5535,0 0,71.928632 -12.5535,0 0,-71.928632"
       style="font-style:normal;font-weight:500;fill:#26394b;marker:none;font-family:Industria Solid;-inkscape-font-specification:Industria Solid Medium"
       id="path3972"
       inkscape:connector-curvature="0" /><path
       d="m 1105.9544,151.03612 12.5536,0 0,-84.482212 12.5536,0 0,84.482212 12.5535,0 0,-84.482212 12.5536,0 0,84.482212 12.5536,0 0,-84.482212 c 0,-6.955355 -5.5982,-12.553581 -12.5536,-12.553581 l -50.2143,0 0,97.035793"
       style="font-style:normal;font-weight:500;fill:#26394b;marker:none;font-family:Industria Solid;-inkscape-font-specification:Industria Solid Medium"
       id="path3974"
       inkscape:connector-curvature="0" /></g></svg>